<svg xmlns="http://www.w3.org/2000/svg" width="105" height="34" fill="none"><mask id="a" width="105" height="34" x="0" y="0" fill="#000" maskUnits="userSpaceOnUse"><path fill="#fff" d="M0 0h105v34H0z"/><path fill-rule="evenodd" d="M10.264 3.131c.01-.793.187-1.335.594-1.819.29-.345.301-.344.794.055.34.275.35.276.53.074.155-.175.629-.441.784-.441.15 0 .348.485.348.848v.32l.361.095c.199.051.57.24.827.42l.86.604c.31.217.493.287.845.325.624.066.653.093.61.584-.053.609-.12.649-1.144.693-.816.035-1.11.114-1.11.3 0 .03.326.07.726.086.47.02.77.066.848.133.21.178.003.264-.751.31-1.06.066-1.558.381-1.558.987 0 .383.293.614 1.107.874 1.219.388 2.042 1.029 2.486 1.937.294.602.39 1.068.386 1.888-.005 1.08-.268 2.07-.777 2.931-.126.212-.201.336-.167.389.048.075.317.008.977-.15.828-.2 1.313-.222 2.476-.117.687.063.735.057 1.03-.113.41-.24.855-.242 1.125-.006l.201.177-.277.052c-.594.114-.842.343-.37.343.313 0 .62.275.62.556 0 .171-.017.182-.188.115a1.84 1.84 0 0 0-.533-.07h-.344l.295.137c.33.152.48.405.423.707-.046.246-.056.246-.327.014-.12-.103-.277-.188-.348-.188-.11 0-.124.056-.097.394.026.312.003.43-.112.575l-.144.181-.086-.264c-.136-.42-.344-.56-.913-.617a5.757 5.757 0 0 1-1.024-.223c-.21-.069-.343-.113-.48-.124-.25-.02-.508.072-1.25.335a9.9 9.9 0 0 1-1.268.358l-.51.089v.587l-.304-.05c-1.046-.17-2.113-1.225-2.557-2.527-.128-.375-.138-.385-.188-.192-.14.543.35 1.52 1.119 2.229l.449.413-.464.245c-.913.482-1.436 1.212-1.436 2.006 0 .417.008.433.406.828 1.212 1.204 1.322 3.123.262 4.53-.65.86-1.757 1.577-3.272 2.115-1.255.447-1.495.756-1.413 1.82.049.64.145.971.392 1.354.288.448.547.553 1.384.564.598.007.793.04 1.046.171.529.276.699.754.422 1.184l-.135.21-.055-.21c-.056-.214-.193-.425-.276-.425-.026 0-.046.154-.046.343 0 .27-.037.374-.174.486-.243.2-.292.181-.318-.129-.015-.18-.077-.308-.185-.38-.158-.107-.16-.103-.12.156.037.226.01.299-.18.493-.29.295-.383.29-.334-.019.051-.323-.104-.463-.434-.392-.595.127-.921.127-1.167 0-.663-.342-1.291-1.074-1.53-1.78-.216-.64-.323-1.74-.276-2.843.065-1.516.181-1.761.975-2.062.8-.303 1.27-.987 1.336-1.95.031-.46-.082-1.166-.267-1.66l-.076-.203-.315.175c-1.097.609-2.672.752-3.826.348-.59-.207-1.25-.7-1.637-1.224-.317-.43-.385-.574-.271-.58a.576.576 0 0 0 .194-.109c.134-.103.129-.12-.126-.407-.992-1.117-1.49-2.75-1.303-4.271.042-.345.077-.654.077-.686 0-.085.278-.071.33.017.093.152.185.067.185-.171 0-.658.411-1.664 1.321-3.232.648-1.115 1.044-1.95 1.263-2.665.32-1.039.188-3.121-.27-4.28l-.173-.438.199.04c.958.195 2.238 1.064 2.818 1.91l.12.177.252-.195c.138-.107.273-.195.3-.195.086 0 .72.923.948 1.383.523 1.053.772 2.236.687 3.269-.104 1.267-.628 2.421-1.741 3.836-1.05 1.332-1.43 2.048-1.652 3.103-.265 1.26.073 2.364.847 2.765.303.158.773.199.953.083.118-.077.122-.498.007-.903-.041-.143-.075-.523-.075-.843 0-1.029.218-1.451 1.72-3.336 1.154-1.449 1.619-2.285 1.711-3.08.041-.35.034-.37-.127-.37a.584.584 0 0 1-.335-.156c-.141-.135-.153-.188-.087-.38.11-.321.031-.823-.272-1.745-.41-1.248-.497-1.75-.498-2.878-.001-1.125.138-1.828.506-2.555.174-.343.204-.495.211-1.073Zm3.432.54c.377.044.59-.114.426-.315-.035-.043-.057-.072-.085-.087-.06-.03-.15.001-.458.097-.42.132-.376.249.117.305Zm2.96 1.889c-.03-.048-.205-.185-.39-.305l-.336-.217h.368c.274 0 .497.067.877.262.525.269.818.32 1.066.185.228-.124.18.125-.072.382-.3.306-.747.306-1.163-.001-.164-.12-.322-.259-.35-.306Zm3.454 1.124c-.212-.379-.08-1.08.24-1.263.109-.063.13-.04.147.164.035.437.097.725.156.725.032 0 .098-.134.146-.298.095-.32.255-.45.556-.45.215 0 .224.038.078.3a1.08 1.08 0 0 0-.108.434l-.002.249.247-.267c.203-.22.3-.267.539-.267.16 0 .313.021.339.048.026.027-.067.178-.208.337-.14.158-.256.316-.256.35 0 .033.162.058.36.055.256-.004.404.036.514.137.216.199.196.243-.13.297-.424.069-.568.238-.67.793-.1.551-.281.954-.622 1.385-.13.165-.425.654-.656 1.087-.464.87-.844 1.416-1.525 2.19l-.453.515.13.226c.058.1.094.159.085.21-.014.078-.127.138-.413.292-.3.161-1.038.394-1.088.344-.019-.02.042-.213.134-.43.308-.724.448-1.405.482-2.336l.032-.894.385-.31c.852-.683 1.29-1.36 1.556-2.404.142-.56.144-.973.005-1.22Zm-6.762 18.392c.975-1.348.991-3.164.04-4.445-.2-.267-.33-.486-.29-.486.04 0 .335.103.656.229 1.093.429 2.07 1.208 2.652 2.113.406.633.543 1.098.544 1.846 0 .694-.083.92-.87 2.345-.392.707-.53 1.308-.413 1.784.105.424.696 1.238 1.184 1.63.65.524 1.01.673 1.627.673.654 0 1.34.12 1.613.284.41.247.516.886.195 1.182-.132.12-.139.12-.139-.025a.652.652 0 0 0-.142-.33l-.142-.176.004.317c.003.311-.167.692-.31.692-.039 0-.071-.084-.071-.187 0-.174-.224-.486-.35-.486-.03 0-.044.143-.031.318.018.243-.012.357-.131.486-.2.218-.297.213-.297-.013 0-.203-.174-.417-.339-.417-.06 0-.21.053-.332.118-.608.32-1.88-.329-3.046-1.551-.692-.727-.95-1.06-1.276-1.651-.262-.475-.267-.606-.077-1.814.113-.719.048-1.036-.329-1.606l-.253-.383.323-.447ZM30.195 15h-1.183L29 22.7h1.195V15Zm2.858 7.7v-4.07h-.013a2.38 2.38 0 0 1 1.692-.815c.892 0 1.204.565 1.204 1.36v3.526h1.138v-3.74c0-1.296-.806-2.137-2.153-2.137a2.878 2.878 0 0 0-1.88.659v-.532h-1.138v5.75h1.15Zm9.307-5.745-1.689 4.368-1.69-4.369h-1.233l2.341 5.75h1.158l2.345-5.75H42.36Zm3.494 4.46a1.646 1.646 0 0 1-.57-1.125H49.716v-.092a3.3 3.3 0 0 0 0-.341c0-1.628-1.023-3.034-2.797-3.034-1.775 0-2.83 1.362-2.83 3.002-.02.394.043.789.188 1.158.145.369.366.706.652.988.285.282.627.504 1.006.652.379.149.785.22 1.193.208.445.003.885-.096 1.282-.29a2.791 2.791 0 0 0 1.005-.822l.066-.083-.85-.592-.062.068a1.884 1.884 0 0 1-.661.53c-.26.127-.545.194-.835.197a1.762 1.762 0 0 1-1.22-.424Zm5.404-.446-.82.71.085.076c.337.36.752.645 1.214.834.463.19.962.278 1.464.262 1.17 0 2.242-.512 2.242-1.763 0-1.16-1.109-1.593-2.102-1.863a11.151 11.151 0 0 0-.088-.024c-.376-.103-1.138-.31-1.259-.643a.582.582 0 0 1-.028-.183c0-.437.627-.54.973-.54a2.09 2.09 0 0 1 1.425.564l.07.06.78-.675-.075-.076a3.077 3.077 0 0 0-1.023-.659 3.168 3.168 0 0 0-1.208-.219c-1.03 0-2.098.457-2.098 1.589s1.096 1.497 2.053 1.76l.104.027c.512.135 1.305.344 1.305.938 0 .555-.678.714-1.138.714a2.493 2.493 0 0 1-.994-.218 2.414 2.414 0 0 1-.812-.596l-.07-.075Zm4.781-3.058h1.03l.004 3.125c0 1.27.74 1.794 2 1.794.074 0 .15-.005.226-.011.076-.006.152-.012.226-.012h.095v-.98h-.592c-.636 0-.82-.291-.82-.867v-3.05h1.408v-.973h-1.409v-1.66H57.07v1.66h-1.03v.974Zm6.952-1.88h2.42v6.669h1.178v-6.668h2.42V15H62.99v1.033Zm6.124.93 2.382 5.631L70.581 25h1.154l3.13-8.022H73.7l-1.643 4.218-1.754-4.234h-1.187Zm6.575 3.38c0 1.607.94 2.497 2.584 2.497 1.647 0 2.587-.89 2.587-2.498v-3.38h-1.15v3.316c0 .917-.44 1.568-1.425 1.568-.986 0-1.45-.659-1.45-1.568V16.96H75.69v3.38Zm7.813 2.37v-4.19l-.002.001h-.008c.182-.208.406-.377.66-.496.252-.118.528-.186.81-.195.908 0 1.064.596 1.064 1.358v3.53h1.137v-3.744a2.34 2.34 0 0 0-.029-.397c.176-.222.398-.403.652-.534.255-.13.536-.206.823-.222.909 0 1.064.597 1.064 1.359v3.53h1.105v-3.745c0-1.263-.64-2.136-2.008-2.136a3.02 3.02 0 0 0-1.992.794c-.179-.26-.424-.47-.712-.609a1.898 1.898 0 0 0-.931-.185 2.803 2.803 0 0 0-1.642.567v-.437h-1.138v5.75h1.147Zm10.247-1.288a1.646 1.646 0 0 1-.572-1.122h4.432v-.09a3.355 3.355 0 0 0 0-.342c0-1.633-1.024-3.039-2.797-3.039-1.774 0-2.83 1.366-2.83 3.007-.02.393.044.787.19 1.156.144.369.365.704.65.987.287.28.63.503 1.007.65.379.148.784.22 1.192.208.444.003.884-.096 1.281-.289a2.805 2.805 0 0 0 1.006-.82l.066-.083-.847-.595-.065.067c-.174.225-.4.407-.66.533a1.94 1.94 0 0 1-.835.194 1.761 1.761 0 0 1-1.218-.422Zm6.217 1.288v-4.07h-.008a2.34 2.34 0 0 1 .76-.584c.293-.14.613-.22.94-.235.895 0 1.208.565 1.208 1.359v3.53H104v-3.745c0-1.29-.806-2.136-2.152-2.136a2.878 2.878 0 0 0-1.881.663v-.532h-1.138v5.75h1.138Zm-51.435-3.391h-3.249c.131-.85.669-1.505 1.642-1.505.415.008.812.168 1.11.448.297.279.475.657.497 1.057Zm47.39-1.055c.3.28.48.66.5 1.062h-3.26c.156-.846.69-1.505 1.643-1.505a1.67 1.67 0 0 1 1.117.443Z" clip-rule="evenodd"/></mask><path fill="#252830" fill-rule="evenodd" d="M10.264 3.131c.01-.793.187-1.335.594-1.819.29-.345.301-.344.794.055.34.275.35.276.53.074.155-.175.629-.441.784-.441.15 0 .348.485.348.848v.32l.361.095c.199.051.57.24.827.42l.86.604c.31.217.493.287.845.325.624.066.653.093.61.584-.053.609-.12.649-1.144.693-.816.035-1.11.114-1.11.3 0 .03.326.07.726.086.47.02.77.066.848.133.21.178.003.264-.751.31-1.06.066-1.558.381-1.558.987 0 .383.293.614 1.107.874 1.219.388 2.042 1.029 2.486 1.937.294.602.39 1.068.386 1.888-.005 1.08-.268 2.07-.777 2.931-.126.212-.201.336-.167.389.048.075.317.008.977-.15.828-.2 1.313-.222 2.476-.117.687.063.735.057 1.03-.113.41-.24.855-.242 1.125-.006l.201.177-.277.052c-.594.114-.842.343-.37.343.313 0 .62.275.62.556 0 .171-.017.182-.188.115a1.84 1.84 0 0 0-.533-.07h-.344l.295.137c.33.152.48.405.423.707-.046.246-.056.246-.327.014-.12-.103-.277-.188-.348-.188-.11 0-.124.056-.097.394.026.312.003.43-.112.575l-.144.181-.086-.264c-.136-.42-.344-.56-.913-.617a5.757 5.757 0 0 1-1.024-.223c-.21-.069-.343-.113-.48-.124-.25-.02-.508.072-1.25.335a9.9 9.9 0 0 1-1.268.358l-.51.089v.587l-.304-.05c-1.046-.17-2.113-1.225-2.557-2.527-.128-.375-.138-.385-.188-.192-.14.543.35 1.52 1.119 2.229l.449.413-.464.245c-.913.482-1.436 1.212-1.436 2.006 0 .417.008.433.406.828 1.212 1.204 1.322 3.123.262 4.53-.65.86-1.757 1.577-3.272 2.115-1.255.447-1.495.756-1.413 1.82.049.64.145.971.392 1.354.288.448.547.553 1.384.564.598.007.793.04 1.046.171.529.276.699.754.422 1.184l-.135.21-.055-.21c-.056-.214-.193-.425-.276-.425-.026 0-.046.154-.046.343 0 .27-.037.374-.174.486-.243.2-.292.181-.318-.129-.015-.18-.077-.308-.185-.38-.158-.107-.16-.103-.12.156.037.226.01.299-.18.493-.29.295-.383.29-.334-.019.051-.323-.104-.463-.434-.392-.595.127-.921.127-1.167 0-.663-.342-1.291-1.074-1.53-1.78-.216-.64-.323-1.74-.276-2.843.065-1.516.181-1.761.975-2.062.8-.303 1.27-.987 1.336-1.95.031-.46-.082-1.166-.267-1.66l-.076-.203-.315.175c-1.097.609-2.672.752-3.826.348-.59-.207-1.25-.7-1.637-1.224-.317-.43-.385-.574-.271-.58a.576.576 0 0 0 .194-.109c.134-.103.129-.12-.126-.407-.992-1.117-1.49-2.75-1.303-4.271.042-.345.077-.654.077-.686 0-.085.278-.071.33.017.093.152.185.067.185-.171 0-.658.411-1.664 1.321-3.232.648-1.115 1.044-1.95 1.263-2.665.32-1.039.188-3.121-.27-4.28l-.173-.438.199.04c.958.195 2.238 1.064 2.818 1.91l.12.177.252-.195c.138-.107.273-.195.3-.195.086 0 .72.923.948 1.383.523 1.053.772 2.236.687 3.269-.104 1.267-.628 2.421-1.741 3.836-1.05 1.332-1.43 2.048-1.652 3.103-.265 1.26.073 2.364.847 2.765.303.158.773.199.953.083.118-.077.122-.498.007-.903-.041-.143-.075-.523-.075-.843 0-1.029.218-1.451 1.72-3.336 1.154-1.449 1.619-2.285 1.711-3.08.041-.35.034-.37-.127-.37a.584.584 0 0 1-.335-.156c-.141-.135-.153-.188-.087-.38.11-.321.031-.823-.272-1.745-.41-1.248-.497-1.75-.498-2.878-.001-1.125.138-1.828.506-2.555.174-.343.204-.495.211-1.073Zm3.432.54c.377.044.59-.114.426-.315-.035-.043-.057-.072-.085-.087-.06-.03-.15.001-.458.097-.42.132-.376.249.117.305Zm2.96 1.889c-.03-.048-.205-.185-.39-.305l-.336-.217h.368c.274 0 .497.067.877.262.525.269.818.32 1.066.185.228-.124.18.125-.072.382-.3.306-.747.306-1.163-.001-.164-.12-.322-.259-.35-.306Zm3.454 1.124c-.212-.379-.08-1.08.24-1.263.109-.063.13-.04.147.164.035.437.097.725.156.725.032 0 .098-.134.146-.298.095-.32.255-.45.556-.45.215 0 .224.038.078.3a1.08 1.08 0 0 0-.108.434l-.002.249.247-.267c.203-.22.3-.267.539-.267.16 0 .313.021.339.048.026.027-.067.178-.208.337-.14.158-.256.316-.256.35 0 .033.162.058.36.055.256-.004.404.036.514.137.216.199.196.243-.13.297-.424.069-.568.238-.67.793-.1.551-.281.954-.622 1.385-.13.165-.425.654-.656 1.087-.464.87-.844 1.416-1.525 2.19l-.453.515.13.226c.058.1.094.159.085.21-.014.078-.127.138-.413.292-.3.161-1.038.394-1.088.344-.019-.02.042-.213.134-.43.308-.724.448-1.405.482-2.336l.032-.894.385-.31c.852-.683 1.29-1.36 1.556-2.404.142-.56.144-.973.005-1.22Zm-6.762 18.392c.975-1.348.991-3.164.04-4.445-.2-.267-.33-.486-.29-.486.04 0 .335.103.656.229 1.093.429 2.07 1.208 2.652 2.113.406.633.543 1.098.544 1.846 0 .694-.083.92-.87 2.345-.392.707-.53 1.308-.413 1.784.105.424.696 1.238 1.184 1.63.65.524 1.01.673 1.627.673.654 0 1.34.12 1.613.284.41.247.516.886.195 1.182-.132.12-.139.12-.139-.025a.652.652 0 0 0-.142-.33l-.142-.176.004.317c.003.311-.167.692-.31.692-.039 0-.071-.084-.071-.187 0-.174-.224-.486-.35-.486-.03 0-.044.143-.031.318.018.243-.012.357-.131.486-.2.218-.297.213-.297-.013 0-.203-.174-.417-.339-.417-.06 0-.21.053-.332.118-.608.32-1.88-.329-3.046-1.551-.692-.727-.95-1.06-1.276-1.651-.262-.475-.267-.606-.077-1.814.113-.719.048-1.036-.329-1.606l-.253-.383.323-.447ZM30.195 15h-1.183L29 22.7h1.195V15Zm2.858 7.7v-4.07h-.013a2.38 2.38 0 0 1 1.692-.815c.892 0 1.204.565 1.204 1.36v3.526h1.138v-3.74c0-1.296-.806-2.137-2.153-2.137a2.878 2.878 0 0 0-1.88.659v-.532h-1.138v5.75h1.15Zm9.307-5.745-1.689 4.368-1.69-4.369h-1.233l2.341 5.75h1.158l2.345-5.75H42.36Zm3.494 4.46a1.646 1.646 0 0 1-.57-1.125H49.716v-.092a3.3 3.3 0 0 0 0-.341c0-1.628-1.023-3.034-2.797-3.034-1.775 0-2.83 1.362-2.83 3.002-.02.394.043.789.188 1.158.145.369.366.706.652.988.285.282.627.504 1.006.652.379.149.785.22 1.193.208.445.003.885-.096 1.282-.29a2.791 2.791 0 0 0 1.005-.822l.066-.083-.85-.592-.062.068a1.884 1.884 0 0 1-.661.53c-.26.127-.545.194-.835.197a1.762 1.762 0 0 1-1.22-.424Zm5.404-.446-.82.71.085.076c.337.36.752.645 1.214.834.463.19.962.278 1.464.262 1.17 0 2.242-.512 2.242-1.763 0-1.16-1.109-1.593-2.102-1.863a11.151 11.151 0 0 0-.088-.024c-.376-.103-1.138-.31-1.259-.643a.582.582 0 0 1-.028-.183c0-.437.627-.54.973-.54a2.09 2.09 0 0 1 1.425.564l.07.06.78-.675-.075-.076a3.077 3.077 0 0 0-1.023-.659 3.168 3.168 0 0 0-1.208-.219c-1.03 0-2.098.457-2.098 1.589s1.096 1.497 2.053 1.76l.104.027c.512.135 1.305.344 1.305.938 0 .555-.678.714-1.138.714a2.493 2.493 0 0 1-.994-.218 2.414 2.414 0 0 1-.812-.596l-.07-.075Zm4.781-3.058h1.03l.004 3.125c0 1.27.74 1.794 2 1.794.074 0 .15-.005.226-.011.076-.006.152-.012.226-.012h.095v-.98h-.592c-.636 0-.82-.291-.82-.867v-3.05h1.408v-.973h-1.409v-1.66H57.07v1.66h-1.03v.974Zm6.952-1.88h2.42v6.669h1.178v-6.668h2.42V15H62.99v1.033Zm6.124.93 2.382 5.631L70.581 25h1.154l3.13-8.022H73.7l-1.643 4.218-1.754-4.234h-1.187Zm6.575 3.38c0 1.607.94 2.497 2.584 2.497 1.647 0 2.587-.89 2.587-2.498v-3.38h-1.15v3.316c0 .917-.44 1.568-1.425 1.568-.986 0-1.45-.659-1.45-1.568V16.96H75.69v3.38Zm7.813 2.37v-4.19l-.002.001h-.008c.182-.208.406-.377.66-.496.252-.118.528-.186.81-.195.908 0 1.064.596 1.064 1.358v3.53h1.137v-3.744a2.34 2.34 0 0 0-.029-.397c.176-.222.398-.403.652-.534.255-.13.536-.206.823-.222.909 0 1.064.597 1.064 1.359v3.53h1.105v-3.745c0-1.263-.64-2.136-2.008-2.136a3.02 3.02 0 0 0-1.992.794c-.179-.26-.424-.47-.712-.609a1.898 1.898 0 0 0-.931-.185 2.803 2.803 0 0 0-1.642.567v-.437h-1.138v5.75h1.147Zm10.247-1.288a1.646 1.646 0 0 1-.572-1.122h4.432v-.09a3.355 3.355 0 0 0 0-.342c0-1.633-1.024-3.039-2.797-3.039-1.774 0-2.83 1.366-2.83 3.007-.02.393.044.787.19 1.156.144.369.365.704.65.987.287.28.63.503 1.007.65.379.148.784.22 1.192.208.444.003.884-.096 1.281-.289a2.805 2.805 0 0 0 1.006-.82l.066-.083-.847-.595-.065.067c-.174.225-.4.407-.66.533a1.94 1.94 0 0 1-.835.194 1.761 1.761 0 0 1-1.218-.422Zm6.217 1.288v-4.07h-.008a2.34 2.34 0 0 1 .76-.584c.293-.14.613-.22.94-.235.895 0 1.208.565 1.208 1.359v3.53H104v-3.745c0-1.29-.806-2.136-2.152-2.136a2.878 2.878 0 0 0-1.881.663v-.532h-1.138v5.75h1.138Zm-51.435-3.391h-3.249c.131-.85.669-1.505 1.642-1.505.415.008.812.168 1.11.448.297.279.475.657.497 1.057Zm47.39-1.055c.3.28.48.66.5 1.062h-3.26c.156-.846.69-1.505 1.643-1.505a1.67 1.67 0 0 1 1.117.443Z" clip-rule="evenodd"/><path fill="#252830" d="m10.858 1.312-.076-.064.076.064Zm-.594 1.82-.1-.002.1.001Zm1.388-1.765.063-.078-.063.078Zm.53.074.074.066-.074-.066Zm1.132.727h-.1v.078l.074.02.026-.098Zm.361.095.025-.097-.025.097Zm.827.42-.058.082.058-.081Zm.86.604-.057.082.058-.082Zm.845.325-.01.1.01-.1Zm.61.584.1.008-.1-.008Zm-1.144.693.005.1-.005-.1Zm-.384.386.004-.1-.004.1Zm.848.133.065-.077-.065.077Zm-.751.31-.006-.1.006.1Zm-.451 1.86.03-.095-.03.096Zm2.486 1.938-.09.044.09-.044Zm.386 1.888h-.1.1Zm-.777 2.931-.087-.05.086.05Zm-.167.389.084-.054-.084.054Zm.977-.15.023.097-.023-.097Zm2.476-.117.01-.1-.01.1Zm1.03-.113.05.086-.05-.086Zm1.125-.006.066-.075-.066.075Zm.201.177.019.098.201-.039-.154-.135-.066.075Zm-.277.052.019.099-.019-.099Zm.062 1.014.036-.093-.036.093Zm-.533-.07v-.1.1Zm-.344 0v-.1l-.042.191.042-.09Zm.295.137.042-.09-.042.09Zm.423.707-.098-.018.098.018Zm-.327.014-.065.075.065-.075Zm-.445.206.1-.008-.1.008Zm-.112.575-.078-.062.078.062Zm-.144.181-.095.031.057.177.116-.146-.078-.062Zm-.086-.264-.095.03.095-.03Zm-.913-.617-.01.1.01-.1Zm-1.024-.223-.032.096.032-.096Zm-.48-.124-.008.1.008-.1Zm-1.25.335-.034-.094.034.095Zm-1.268.358.017.098-.017-.098Zm-.51.089-.018-.099-.083.015v.084h.1Zm0 .587-.017.099.116.019v-.118h-.1Zm-.304-.05.016-.098-.016.099Zm-2.557-2.527.095-.032-.095.033Zm-.188-.192-.097-.025.097.025Zm1.119 2.229.068-.074-.068.073Zm.449.413.047.088.125-.066-.104-.096-.068.074Zm-.464.245-.047-.089.047.089Zm-1.03 2.834.07-.071-.07.071Zm.262 4.53.08.06-.08-.06Zm-3.272 2.115.033.095-.033-.095ZM8.34 28.89l.1-.007-.1.007Zm.392 1.354.084-.054-.084.054Zm1.384.564-.001.1.001-.1Zm1.046.171.046-.088-.046.088Zm.422 1.184-.084-.054.084.054Zm-.135.21-.097.025.058.22.123-.192-.084-.054Zm-.055-.21-.097.025.097-.026Zm-.496.404-.063-.077.063.077Zm-.318-.129-.1.009.1-.009Zm-.185-.38-.055.083.055-.083Zm-.12.156.1-.016-.1.016Zm-.18.493.07.07-.07-.07Zm-.334-.019.099.016-.1-.016Zm-.434-.392.021.097-.02-.097Zm-1.167 0-.046.089.046-.089Zm-1.53-1.78.095-.032-.095.032Zm-.276-2.843-.1-.005.1.005Zm.975-2.062.035.094-.035-.094Zm1.336-1.95.1.007-.1-.007ZM8.399 22l-.094.035L8.4 22Zm-.076-.203.094-.035-.04-.108-.102.056.048.087Zm-.315.175.048.088-.048-.088Zm-3.826.348-.033.094.033-.094Zm-1.637-1.224.08-.059-.08.06Zm-.271-.58-.005-.1.005.1Zm.194-.109-.061-.08.061.08ZM2.342 20l-.075.067.075-.067ZM1.039 15.73l.1.012-.1-.012Zm.408-.67.085-.051-.085.052Zm1.505-3.402.087.05-.087-.05Zm1.263-2.665.096.03-.096-.03Zm-.27-4.28.093-.036-.093.036Zm-.173-.438.02-.098-.18-.037.067.172.093-.037Zm.199.04.02-.098-.02.098Zm2.818 1.91.082-.056-.082.057Zm.12.177-.082.057.06.087.084-.065-.062-.079Zm.252-.195.061.079-.061-.08Zm1.248 1.188.09-.044-.09.044Zm.687 3.269-.1-.008.1.008Zm-1.741 3.836-.079-.062.079.062Zm-1.652 3.103-.098-.02.098.02Zm.847 2.765.046-.088-.046.088Zm.953.083-.054-.084.054.084Zm.007-.903.096-.027-.096.027Zm1.644-4.179.079.063-.079-.063Zm1.712-3.08.1.012-.1-.012Zm-.462-.526-.07.072.07-.072Zm-.087-.38.094.032-.094-.032Zm-.272-1.745.095-.032-.095.032Zm-.498-2.878h.1-.1Zm.506-2.555-.09-.045.09.045Zm4.069-.848-.078.063.078-.063Zm-.426.315.011-.1-.011.1Zm.34-.402-.045.09.046-.09Zm-.457.097.03.096-.03-.096Zm2.687 1.89.055-.085-.055.084Zm.39.304-.086.051.085-.051Zm-.726-.522v-.1h-.34l.286.184.054-.084Zm1.245.262-.045.089.045-.089Zm1.066.185.048.087-.048-.087Zm-.072.382-.072-.07.072.07Zm-1.163-.001.06-.08-.06.08Zm3.343-.445.05.086-.05-.086Zm-.239 1.263-.087.049.087-.05Zm.387-1.099.1-.008-.1.008Zm.302.427-.096-.028.096.028Zm.634-.15.087.048-.087-.049Zm-.108.434h-.1.1Zm-.002.249-.1-.001-.003.259.176-.19-.073-.068Zm.247-.267-.073-.068.073.068Zm.878-.219-.071.07.071-.07Zm-.208.337.075.066-.075-.066Zm.104.405.001.1-.001-.1Zm.514.137.068-.073-.068.073Zm-.13.297.016.098-.016-.098Zm-.67.793.1.018-.1-.018Zm-.622 1.385-.078-.062.078.062ZM20.78 10.5l.088.047-.088-.047Zm-1.525 2.19-.075-.066.075.066Zm-.453.515-.075-.066-.048.054.036.063.087-.05Zm.13.226-.086.05.086-.05Zm.085.21-.099-.017.099.017Zm-.413.292-.047-.088.047.088Zm-1.088.344.072-.07-.072.07Zm.134-.43-.092-.04.092.04Zm.482-2.336-.1-.004.1.004Zm.032-.894-.062-.078-.036.029-.002.045.1.004Zm.385-.31-.062-.077.063.077Zm1.556-2.404.097.024-.097-.024ZM13.387 20.63l.08-.06-.08.06Zm-.039 4.445-.08-.059.08.059Zm.406-4.702.036-.093-.036.093Zm2.652 2.113-.084.054.084-.054Zm.544 1.846h-.1.1Zm-.87 2.345.087.048-.088-.048Zm-.413 1.784-.097.024.097-.024Zm1.184 1.63-.063.079.063-.078Zm3.24.957.051-.086-.051.086Zm.195 1.182.067.073-.067-.073Zm-.28-.355-.079.063.078-.063Zm-.143-.176.078-.063-.18-.226.003.29.1-.001Zm.004.317-.1.001h.1Zm-.762.337-.1.008.1-.008Zm-.131.486.073.068-.073-.068Zm-.968-.312.046.088-.046-.088Zm-3.046-1.551-.072.069.072-.07Zm-1.276-1.651.088-.049-.088.049Zm-.077-1.814-.099-.016.099.016Zm-.329-1.606-.083.055.083-.055Zm-.253-.383-.081-.059-.04.056.038.058.083-.055ZM29.012 15v-.1h-.1v.1h.1Zm1.183 0h.1v-.1h-.1v.1ZM29 22.7h-.1v.1h.1v-.1Zm1.195 0v.1h.1v-.1h-.1Zm2.858-4.07h.1v-.108l-.108.008.008.1Zm0 4.07v.1h.1v-.1h-.1Zm-.013-4.07-.076-.064-.157.182.24-.017-.007-.1Zm.758-.58.043.09-.043-.09Zm.934-.234v-.1h-.004l.004.1Zm1.204 4.885h-.1v.1h.1v-.1Zm1.138 0v.1h.1v-.1h-.1Zm-2.153-5.877-.001.1h.001v-.1Zm-1.88.659h-.1v.213l.163-.136-.064-.077Zm0-.532h.1v-.1h-.1v.1Zm-1.138 0v-.1h-.1v.1h.1Zm0 5.75h-.1v.1h.1v-.1Zm8.768-1.378-.093.036.093.24.094-.24-.094-.036Zm1.689-4.369v-.1h-.069l-.025.064.094.037Zm-3.38 0 .093-.036-.024-.064h-.069v.1Zm-1.232 0v-.1h-.149l.056.138.093-.037Zm2.341 5.75-.093.038.026.063h.067v-.1Zm1.158 0v.1h.067l.025-.062-.092-.037Zm2.345-5.75.092.038.057-.137h-.15v.1Zm1.691 3.336-.043-.09-.062.03.005.067.1-.007Zm.57 1.125-.065.076.066-.076Zm-.568-1.126v-.1h-.023l-.02.01.043.09Zm4.432 0v.1h.1v-.1h-.1Zm0-.09-.1-.006v.005h.1Zm0-.342h-.1v.005l.1-.005Zm-5.627-.032.1.005v-.005h-.1Zm.188 1.158.093-.037-.093.037Zm.652.988.07-.071-.07.071Zm2.199.86v-.1h-.003l.003.1Zm2.287-1.112-.078-.062-.001.002.08.06Zm.066-.083.078.062.066-.084-.087-.06-.057.082Zm-.85-.592.056-.082-.071-.05-.06.065.074.067Zm-.062.068-.074-.068-.005.006.079.062Zm-.661.53-.044-.09.044.09Zm-.835.197v-.1h-.004l.004.1Zm3.363-.16-.065-.075-.087.075.086.076.066-.076Zm.821-.71.074-.068-.066-.072-.073.064.065.076Zm-.735.786.074-.068-.008-.007-.066.075Zm1.214.834-.038.093.038-.093Zm1.464.262v-.1h-.003l.003.1Zm.14-3.626-.027.097.027-.097Zm-.088-.024.026-.097-.026.097Zm-1.259-.643-.095.032.001.002.094-.034Zm.945-.723v-.1.1Zm1.425.564-.069.073.004.003.065-.076Zm.07.06-.066.075.066.056.065-.056-.066-.076Zm.78-.675.065.075.08-.07-.074-.075-.072.07Zm-.075-.076.071-.07-.001-.002-.07.072Zm-1.023-.659-.036.093.036-.093Zm-1.208-.219v.1h.002l-.002-.1Zm-.045 3.348-.026.097.026-.097Zm.104.028.025-.097-.025.097Zm.167 1.652v.1-.1Zm-.994-.218.041-.091-.04.09Zm-.812-.596.074-.066v-.001l-.074.067Zm5.742-3.134h.1v-.1h-.1v.1Zm-1.03 0h-.1v.1h.1v-.1Zm1.033 3.126h.1-.1Zm2.226 1.783.008.1-.008-.1Zm.32-.012v.1h.1v-.1h-.1Zm0-.98h.1v-.1h-.1v.1Zm-1.412-3.916v-.1h-.1v.1h.1Zm1.409 0v.1h.1v-.1h-.1Zm0-.974h.1v-.1h-.1v.1Zm-1.409 0h-.1v.1h.1v-.1Zm0-1.66h.1v-.1h-.1v.1Zm-1.137 0v-.1h-.1v.1h.1Zm0 1.66v.1h.1v-.1h-.1Zm-1.03 0v-.1h-.1v.1h.1Zm9.37-.905h.1v-.1h-.1v.1Zm-2.419 0h-.1v.1h.1v-.1Zm2.42 6.668h-.1v.1h.1v-.1Zm1.178 0v.1h.1v-.1h-.1Zm0-6.668v-.1h-.1v.1h.1Zm2.42 0v.1h.1v-.1h-.1Zm0-1.033h.1v-.1h-.1v.1Zm-6.018 0v-.1h-.1v.1h.1Zm8.506 7.593.094.036.014-.038-.016-.037-.092.039Zm-2.382-5.63v-.1h-.15l.058.138.092-.039ZM70.581 25l-.093-.036-.052.136h.145V25Zm1.154 0v.1h.069l.024-.064-.093-.036Zm3.13-8.022.093.037.054-.137h-.147v.1Zm-1.166 0v-.1h-.069l-.025.064.094.036Zm-1.643 4.218-.092.038.095.23.09-.232-.093-.036Zm-1.754-4.234.093-.038-.026-.062h-.067v.1Zm10.559 0h.1v-.1h-.1v.1Zm-1.15 0v-.1h-.1v.1h.1Zm-2.875 0h.1v-.1h-.1v.1Zm-1.146 0v-.1h-.1v.1h.1Zm7.813 1.56h.1v-.16l-.144.07.043.09Zm0 4.19v.1h.1v-.1h-.1Zm-.002-4.189v.1h.022l.021-.01-.043-.09Zm-.008 0-.076-.066-.145.166h.22v-.1Zm.66-.496-.043-.09.042.09Zm.81-.195v-.1h-.004l.004.1Zm1.064 4.889h-.1v.1h.1v-.1Zm1.137 0v.1h.1v-.1h-.1Zm0-3.745-.1-.001v.001h.1Zm-.029-.397-.078-.062-.027.034.007.043.098-.015Zm.652-.534.046.089-.046-.089Zm.823-.222v-.1h-.005l.005.1Zm1.064 4.89h-.1v.1h.1v-.1Zm1.105 0v.1h.1v-.1h-.1Zm-2.008-5.882v-.1h-.002l.002.1Zm-1.992.794-.082.056.066.095.084-.078-.068-.073Zm-.712-.609.043-.09-.043.09Zm-.931-.185.002.1h.004l-.006-.1Zm-1.642.567h-.1v.202l.16-.122-.06-.08Zm0-.437h.1v-.1h-.1v.1Zm-1.138 0v-.1h-.1v.1h.1Zm0 5.75h-.1v.1h.1v-.1Zm10.822-2.41v-.1h-.108l.009.108.1-.008Zm.572 1.123.065-.076-.065.076Zm3.86-1.122v.1h.1v-.1h-.1Zm0-.09-.1-.006v.006h.1Zm0-.342h-.1v.005l.1-.005Zm-5.627-.032.1.005v-.005h-.1Zm.19 1.156-.094.037.093-.037Zm.65.987-.07.07.07-.07Zm1.007.65-.036.094.036-.093Zm1.192.208v-.1h-.003l.003.1Zm1.281-.289.044.09-.044-.09Zm1.006-.82-.078-.061-.001.001.08.06Zm.066-.083.079.062.065-.083-.087-.06-.057.081Zm-.847-.595.058-.082-.07-.049-.06.061.072.07Zm-.065.067-.072-.07-.007.009.079.061Zm-.66.533-.043-.09.043.09Zm-.835.194v-.1h-.004l.004.1Zm4.999-3.205h.1v-.1h-.1v.1Zm0 4.071v.1h.1v-.1h-.1Zm-.008-4.07-.076-.066-.142.165h.218v-.1Zm.76-.584.044.09-.044-.09Zm.94-.235v-.1h-.004l.004.1Zm1.208 4.89h-.1v.1h.1v-.1Zm1.133 0v.1h.1v-.1h-.1Zm-2.152-5.882-.001.1h.001v-.1Zm-1.881.663h-.1v.214l.164-.137-.064-.077Zm0-.532h.1v-.1h-.1v.1Zm-1.138 0v-.1h-.1v.1h.1Zm0 5.75h-.1v.1h.1v-.1Zm-53.546-3.391-.099-.015-.017.115h.116v-.1Zm3.248 0v.1h.106l-.006-.105-.1.005Zm-1.606-1.505.003-.1h-.003v.1Zm1.11.448-.07.073.07-.073Zm48.388 1.064v.1h.105l-.006-.105-.1.005Zm-.501-1.062.068-.073-.068.073Zm-2.76 1.062-.098-.018-.021.118h.12v-.1Zm1.643-1.505.001-.1h-.001v.1ZM10.782 1.248c-.426.506-.607 1.072-.618 1.882l.2.003c.01-.777.182-1.294.57-1.756l-.152-.13Zm.933.041a4.967 4.967 0 0 0-.298-.23.487.487 0 0 0-.23-.099.294.294 0 0 0-.216.083 1.84 1.84 0 0 0-.19.205l.154.129c.074-.089.123-.146.165-.182.04-.033.058-.036.072-.035.022.002.06.015.133.064.07.048.16.12.284.22l.126-.155Zm.392.085a.816.816 0 0 1-.097.1.063.063 0 0 1-.016.01h-.004a.232.232 0 0 1-.08-.044 3.648 3.648 0 0 1-.195-.15l-.126.155c.084.067.151.122.207.16a.404.404 0 0 0 .167.077.22.22 0 0 0 .168-.05.975.975 0 0 0 .125-.125l-.15-.133Zm.86-.474a.597.597 0 0 0-.204.052c-.074.03-.157.07-.238.116-.16.09-.33.206-.418.306l.15.133c.066-.074.21-.178.366-.265.076-.042.15-.08.214-.105a.438.438 0 0 1 .13-.037V.9Zm.447.948a1.68 1.68 0 0 0-.126-.598 1.012 1.012 0 0 0-.125-.23.392.392 0 0 0-.081-.08.2.2 0 0 0-.116-.04v.2c-.008 0-.01-.004 0 .003a.196.196 0 0 1 .038.04.817.817 0 0 1 .1.183c.064.157.11.356.11.522h.2Zm0 .32v-.32h-.2v.32h.2Zm.286-.002-.361-.094-.05.193.36.094.051-.193Zm.86.436c-.262-.184-.645-.38-.86-.436l-.05.193c.183.048.543.23.794.406l.115-.163Zm.86.603-.86-.603-.116.163.861.604.115-.164Zm.798.307a1.579 1.579 0 0 1-.413-.088 1.79 1.79 0 0 1-.385-.219l-.115.164c.158.11.29.188.428.241.14.054.283.082.464.101l.021-.199Zm.699.692c.01-.12.017-.223.01-.306a.337.337 0 0 0-.096-.226.483.483 0 0 0-.238-.108 3.77 3.77 0 0 0-.375-.052l-.021.2c.157.016.27.03.354.048.084.018.123.038.142.057.016.015.03.04.035.099.005.062 0 .147-.01.271l.199.017Zm-1.24.785c.256-.011.456-.022.612-.042a.954.954 0 0 0 .372-.107.44.44 0 0 0 .194-.254c.034-.103.048-.23.062-.382l-.2-.017a1.593 1.593 0 0 1-.052.336.241.241 0 0 1-.108.146.77.77 0 0 1-.293.08c-.146.018-.338.029-.595.04l.009.2Zm-1.014.2c0-.015.003-.028.023-.044a.407.407 0 0 1 .152-.066c.164-.044.431-.073.84-.09l-.009-.2c-.408.018-.696.046-.883.097a.593.593 0 0 0-.23.106.25.25 0 0 0-.093.196h.2Zm.63-.014a6.886 6.886 0 0 1-.505-.037 1.56 1.56 0 0 1-.17-.029h-.002.003a.092.092 0 0 1 .043.079h-.2c0 .048.031.076.042.084.013.01.026.017.035.02.018.008.039.014.059.018.042.01.1.019.166.027.135.016.32.03.52.038l.009-.2Zm.909.156a.384.384 0 0 0-.136-.065 1.446 1.446 0 0 0-.19-.041 5.364 5.364 0 0 0-.583-.05l-.008.2c.233.01.421.026.56.047.069.011.123.023.163.035a.22.22 0 0 1 .065.027l.129-.153Zm-.81.487a6.19 6.19 0 0 0 .473-.044 1.29 1.29 0 0 0 .296-.07c.064-.026.149-.076.154-.174a.191.191 0 0 0-.036-.115.415.415 0 0 0-.077-.084l-.13.153a.224.224 0 0 1 .041.042c.006.009.001.006.002-.006.001-.03.026-.023-.03 0-.048.02-.128.039-.248.056-.119.017-.27.03-.457.042l.012.2Zm-1.464.887c0-.27.107-.467.335-.612.236-.149.605-.243 1.129-.275l-.012-.2c-.536.033-.945.13-1.224.306a.872.872 0 0 0-.428.78h.2Zm1.037.778c-.405-.129-.667-.247-.827-.373-.153-.12-.21-.246-.21-.405h-.2c0 .224.089.406.286.562.19.15.482.277.89.407l.061-.19Zm2.546 1.989c-.46-.939-1.308-1.594-2.546-1.989l-.06.191c1.2.382 1.997 1.009 2.426 1.886l.18-.088Zm.396 1.933c.004-.832-.093-1.314-.396-1.933l-.18.088c.287.585.38 1.036.376 1.844h.2Zm-.791 2.981c.519-.878.786-1.885.79-2.981l-.2-.001c-.004 1.063-.263 2.035-.762 2.88l.172.102Zm-.169.284c.011.017.006.03.008.019a.269.269 0 0 1 .022-.057c.028-.059.075-.138.139-.246l-.172-.102c-.062.104-.115.193-.148.262a.453.453 0 0 0-.037.106.17.17 0 0 0 .02.126l.168-.108Zm.87-.194c-.332.08-.56.135-.712.162a.808.808 0 0 1-.157.016c-.037-.001-.017-.01-.001.016l-.168.108c.04.063.112.074.16.076a.988.988 0 0 0 .2-.02c.16-.027.396-.084.724-.163l-.047-.195Zm2.508-.118c-1.17-.107-1.667-.084-2.509.118l.047.195c.814-.196 1.288-.219 2.444-.114l.018-.2Zm.97-.1c-.146.084-.216.118-.328.13-.122.014-.294.002-.642-.03l-.018.2c.34.03.535.046.682.03.157-.018.258-.072.406-.158l-.1-.173Zm1.242.005c-.314-.274-.81-.258-1.242-.006l.1.173c.39-.227.784-.214 1.01-.016l.132-.15Zm.2.176-.2-.176-.132.15.201.177.132-.15Zm-.323.227.277-.053-.038-.197-.277.053.038.197Zm-.39.144a.756.756 0 0 1-.126-.008c-.032-.006-.042-.012-.041-.012a.06.06 0 0 1 .02.054c-.002.02-.012.023.001.01a.598.598 0 0 1 .177-.092c.094-.035.215-.069.359-.096l-.038-.197c-.153.03-.285.066-.391.106a.77.77 0 0 0-.243.133.187.187 0 0 0-.063.11.142.142 0 0 0 .064.137.305.305 0 0 0 .12.044.952.952 0 0 0 .161.011v-.2Zm.721.656a.631.631 0 0 0-.226-.458.757.757 0 0 0-.495-.198v.2c.129 0 .261.057.362.147.101.09.16.205.16.309h.2Zm-.324.209c.042.016.082.03.116.038.03.007.083.014.13-.015a.162.162 0 0 0 .071-.115.698.698 0 0 0 .007-.117h-.2a1.102 1.102 0 0 1-.004.082v.002a.058.058 0 0 1 .022-.023.054.054 0 0 1 .025-.008l-.008-.001a.704.704 0 0 1-.087-.03l-.072.187Zm-.496-.065c.09 0 .192.007.284.02.095.012.171.029.212.045l.072-.187a1.239 1.239 0 0 0-.257-.057 2.362 2.362 0 0 0-.312-.02v.2Zm-.345.002.345-.002-.001-.2-.345.002.001.2Zm.337-.055-.295-.136-.084.181.295.137.084-.182Zm.48.816a.671.671 0 0 0-.08-.48.885.885 0 0 0-.4-.336l-.084.182c.151.07.254.16.313.258.058.097.078.21.054.34l.197.036Zm-.491.071a2.9 2.9 0 0 0 .165.136c.022.016.045.03.067.041.022.01.051.021.085.02.086-.004.122-.074.137-.112.015-.041.026-.097.037-.156l-.197-.037a.876.876 0 0 1-.028.122c-.003.01-.004.007.002.001a.062.062 0 0 1 .04-.018c.014 0 .018.004.01 0a.242.242 0 0 1-.035-.023 2.726 2.726 0 0 1-.153-.125l-.13.151Zm-.283-.162.01.001a.557.557 0 0 1 .1.041c.055.031.118.074.173.12l.13-.151a1.228 1.228 0 0 0-.21-.145.762.762 0 0 0-.102-.046.31.31 0 0 0-.1-.02v.2Zm.003.285a3.187 3.187 0 0 1-.012-.198c0-.05.002-.078.006-.093.003-.013.004-.004-.009.004-.008.005-.01.002.012.002v-.2a.218.218 0 0 0-.12.03.185.185 0 0 0-.077.116.584.584 0 0 0-.012.145c.001.056.006.125.013.21l.2-.016Zm-.134.645a.591.591 0 0 0 .129-.267c.02-.101.018-.22.005-.378l-.2.016c.013.155.013.251-.001.323a.394.394 0 0 1-.09.182l.157.124Zm-.144.181.144-.18-.156-.125-.144.181.156.125Zm-.26-.296.087.265.19-.062-.086-.264-.19.061Zm-.827-.547c.281.028.454.075.573.155.114.077.19.193.255.392l.19-.061c-.072-.221-.167-.385-.333-.497-.162-.109-.377-.16-.665-.188l-.02.199Zm-1.046-.227c.295.097.763.199 1.046.227l.02-.2a5.664 5.664 0 0 1-1.003-.217l-.063.19Zm-.456-.12c.122.01.243.05.456.12l.063-.19c-.205-.068-.352-.118-.503-.13l-.016.2Zm-1.209.33c.373-.133.62-.22.804-.273.183-.052.297-.066.405-.058l.016-.2a1.306 1.306 0 0 0-.475.066c-.193.055-.447.145-.817.276l.067.189Zm-1.284.361a9.96 9.96 0 0 0 1.284-.361l-.067-.189a9.79 9.79 0 0 1-1.251.353l.034.197Zm-.51.09.51-.09-.034-.197-.51.09.034.197Zm.082.194v-.293h-.2v.293h.2Zm0 .294v-.294h-.2v.294h.2Zm-.42.05.304.049.033-.198-.304-.05-.032.198Zm-2.634-2.594a4.5 4.5 0 0 0 1.077 1.727c.463.457 1.009.777 1.558.866l.032-.197c-.497-.08-1.007-.374-1.45-.812a4.298 4.298 0 0 1-1.028-1.649l-.19.065Zm.003-.2a.614.614 0 0 1 .025-.085l-.004.006a.08.08 0 0 1-.031.023.09.09 0 0 1-.064.002.078.078 0 0 1-.03-.018c-.005-.006-.004-.007.003.007a6.22 6.22 0 0 1 .098.265l.189-.065a6.256 6.256 0 0 0-.078-.22.843.843 0 0 0-.03-.069.228.228 0 0 0-.039-.058.124.124 0 0 0-.047-.03.111.111 0 0 0-.08.002.12.12 0 0 0-.047.036.166.166 0 0 0-.02.03.732.732 0 0 0-.039.124l.194.05Zm1.09 2.13a4.136 4.136 0 0 1-.88-1.148c-.197-.394-.271-.746-.21-.982l-.194-.05c-.08.307.022.715.226 1.122.207.412.53.843.922 1.205l.136-.147Zm.449.413-.45-.413-.135.147.45.413.135-.147Zm-.485.407.464-.245-.094-.177-.464.245.094.177Zm-1.383 1.918c0-.746.49-1.447 1.383-1.918l-.094-.177c-.934.493-1.489 1.252-1.489 2.095h.2Zm.376.757c-.204-.203-.29-.292-.332-.379-.04-.08-.044-.163-.044-.378h-.2c0 .203 0 .336.064.466.061.125.178.24.371.433l.141-.142Zm.271 4.66c1.09-1.444.978-3.419-.271-4.66l-.14.142c1.174 1.167 1.284 3.03.252 4.398l.16.12Zm-3.318 2.15c1.525-.542 2.653-1.267 3.318-2.15l-.16-.12c-.632.84-1.72 1.547-3.225 2.082l.067.189ZM8.44 28.883c-.04-.53.003-.839.185-1.073.187-.24.533-.422 1.162-.645l-.067-.189c-.626.223-1.026.42-1.253.711-.231.298-.267.675-.226 1.211l.2-.015Zm.377 1.307c-.235-.364-.328-.678-.377-1.307l-.199.015c.05.65.149 1 .408 1.4l.168-.108Zm1.302.518c-.419-.006-.676-.035-.862-.11-.18-.074-.302-.194-.44-.408l-.168.108c.15.234.3.39.532.484.225.092.516.12.935.126l.003-.2Zm1.09.183c-.275-.144-.49-.176-1.09-.183l-.003.2c.595.007.77.04 1.001.16l.092-.177Zm.46 1.326a.824.824 0 0 0 .101-.737c-.084-.238-.28-.443-.56-.59l-.093.178c.248.13.401.3.465.479a.624.624 0 0 1-.081.562l.168.108Zm-.135.21.135-.21-.168-.108-.135.21.168.107Zm-.236-.239.055.21.194-.051-.055-.21-.194.051Zm-.18-.35c-.017 0-.017-.009.004.01a.404.404 0 0 1 .061.077c.046.07.09.166.115.263l.194-.05a1.143 1.143 0 0 0-.141-.323.593.593 0 0 0-.095-.115.211.211 0 0 0-.137-.062v.2Zm.054.243c0-.091.006-.172.013-.229a.372.372 0 0 1 .011-.057l-.003.005c0 .001-.024.038-.074.038v-.2a.112.112 0 0 0-.093.052.18.18 0 0 0-.02.045.552.552 0 0 0-.019.09c-.01.068-.014.159-.014.256h.2Zm-.21.563a.506.506 0 0 0 .17-.227c.032-.09.04-.199.04-.336h-.2c0 .133-.009.212-.03.269a.31.31 0 0 1-.107.14l.128.154Zm-.48-.197c.006.078.014.145.03.198.013.047.04.114.109.142.068.027.134 0 .177-.024a1.15 1.15 0 0 0 .165-.119l-.128-.154a.975.975 0 0 1-.133.098c-.035.019-.028.005-.006.014.023.009.018.025.008-.012a.928.928 0 0 1-.023-.16l-.2.017Zm-.141-.306c.073.049.127.143.14.306l.2-.017c-.017-.198-.087-.36-.229-.455l-.111.166Zm.035.057a2.32 2.32 0 0 1-.021-.167l-.002.005a.072.072 0 0 1-.012.024.084.084 0 0 1-.069.032.051.051 0 0 1-.013-.002h.003a2.195 2.195 0 0 1 .079.05l.111-.165c-.037-.025-.074-.05-.103-.064a.176.176 0 0 0-.065-.019.118.118 0 0 0-.102.046.144.144 0 0 0-.027.076c-.001.02 0 .04.001.06.004.04.012.092.022.156l.198-.032Zm-.21.579a.802.802 0 0 0 .199-.27.593.593 0 0 0 .01-.309l-.197.032c.018.11.016.162 0 .208-.019.048-.059.102-.154.199l.143.14Zm-.503-.105a.693.693 0 0 0-.01.207.194.194 0 0 0 .038.09.142.142 0 0 0 .105.055.203.203 0 0 0 .095-.021.48.48 0 0 0 .083-.051c.054-.04.119-.1.193-.175l-.143-.14a1.578 1.578 0 0 1-.17.154.28.28 0 0 1-.047.03c-.011.005-.01.002 0 .003.014 0 .03.008.04.021.007.009.006.013.004.002a.522.522 0 0 1 .01-.143l-.198-.032Zm-.314-.279c.154-.033.234-.009.272.025.036.033.066.106.042.254l.198.032c.027-.174.005-.333-.106-.434-.11-.1-.272-.11-.448-.072l.042.195Zm-1.234-.008c.28.145.638.136 1.234.008l-.042-.195c-.594.127-.889.119-1.1.01l-.092.177Zm-1.578-1.837c.247.731.892 1.483 1.578 1.837l.092-.178c-.64-.33-1.25-1.041-1.481-1.723l-.19.064Zm-.282-2.88c-.047 1.109.06 2.223.282 2.88l.189-.064c-.211-.624-.318-1.71-.271-2.807l-.2-.009Zm1.04-2.15c-.403.152-.663.3-.816.625-.147.31-.192.773-.224 1.525l.2.009c.033-.763.078-1.181.205-1.448.118-.252.314-.376.705-.524l-.07-.187Zm1.27-1.864c-.063.93-.512 1.577-1.27 1.864l.07.187c.843-.32 1.332-1.041 1.4-2.037l-.2-.014Zm-.26-1.618c.18.483.291 1.174.26 1.618l.2.014c.033-.476-.083-1.197-.272-1.702l-.188.07Zm-.075-.203.075.203.188-.07-.076-.203-.187.07Zm-.174.228.316-.175-.097-.175-.316.175.097.175Zm-3.907.354c1.182.414 2.786.268 3.907-.354l-.097-.175c-1.073.595-2.617.735-3.744.34l-.066.19Zm-1.684-1.258c.398.539 1.074 1.044 1.684 1.258l.066-.189c-.57-.2-1.214-.68-1.59-1.188l-.16.119Zm-.196-.74a.168.168 0 0 0-.083.025.135.135 0 0 0-.06.086.188.188 0 0 0 .003.086.42.42 0 0 0 .028.077c.048.1.15.252.308.466l.16-.119a3.18 3.18 0 0 1-.287-.432.23.23 0 0 1-.015-.04c-.002-.009 0-.005-.002.006a.065.065 0 0 1-.028.04c-.012.007-.02.006-.015.006l-.009-.2Zm.138-.088a.893.893 0 0 1-.14.087c-.012.005-.009.002.002.002l.009.2a.202.202 0 0 0 .067-.017 1.097 1.097 0 0 0 .184-.113l-.122-.16Zm-.14-.261c.064.072.11.125.142.166a.284.284 0 0 1 .046.07v-.01c.001-.007.004-.01.004-.01a.3.3 0 0 1-.052.045l.122.158a.441.441 0 0 0 .093-.088.175.175 0 0 0 .024-.155.446.446 0 0 0-.08-.134 4.298 4.298 0 0 0-.15-.175l-.15.133ZM.94 15.717c-.191 1.548.316 3.21 1.327 4.35l.15-.133c-.973-1.095-1.463-2.7-1.279-4.193l-.198-.024Zm.076-.674-.001.016a47.02 47.02 0 0 1-.075.658l.198.024a47.692 47.692 0 0 0 .072-.616c.003-.036.006-.068.006-.082h-.2Zm.516-.035a.24.24 0 0 0-.125-.094.491.491 0 0 0-.14-.027.38.38 0 0 0-.14.016c-.036.013-.11.051-.11.14h.2c0 .046-.04.055-.024.049a.288.288 0 0 1 .145.01c.026.01.028.017.023.01l.171-.104Zm-.001-.12a.517.517 0 0 1-.013.125c-.008.031-.016.038-.013.035a.046.046 0 0 1 .023-.011.047.047 0 0 1 .028.003c.005.002-.004 0-.024-.032l-.17.104a.27.27 0 0 0 .111.11.152.152 0 0 0 .169-.028.27.27 0 0 0 .07-.132.713.713 0 0 0 .019-.173h-.2Zm1.335-3.281c-.456.785-.79 1.433-1.008 1.97-.219.534-.327.964-.327 1.312h.2c0-.31.097-.712.312-1.237.214-.524.542-1.163.996-1.945l-.173-.1ZM4.12 8.963c-.217.703-.608 1.531-1.254 2.644l.173.1c.649-1.117 1.05-1.96 1.272-2.686l-.191-.058Zm-.268-4.214c.224.566.37 1.365.42 2.154.05.79.002 1.557-.152 2.06l.19.058c.166-.536.212-1.33.161-2.13-.05-.802-.199-1.623-.433-2.215l-.186.073Zm-.173-.438.173.438.186-.073-.173-.439-.186.074Zm.312-.095-.2-.04-.039.196.199.04.04-.196Zm2.88 1.952c-.299-.437-.774-.874-1.293-1.226-.52-.352-1.091-.625-1.587-.726l-.04.196c.461.094 1.009.353 1.514.696.506.342.96.763 1.241 1.173l.165-.113Zm.121.177-.12-.177-.166.113.12.177.166-.113Zm.108-.218-.252.195.123.158.251-.195-.122-.158Zm.36-.216a.141.141 0 0 0-.051.01 1.085 1.085 0 0 0-.11.062 3.082 3.082 0 0 0-.2.144l.123.158a2.89 2.89 0 0 1 .247-.17.159.159 0 0 1 .014-.008c.006-.002-.005.004-.022.004v-.2ZM8.5 7.35a8.453 8.453 0 0 0-.535-.877 6.598 6.598 0 0 0-.273-.373 1.542 1.542 0 0 0-.103-.12.395.395 0 0 0-.046-.04.18.18 0 0 0-.029-.017.123.123 0 0 0-.052-.012v.2a.077.077 0 0 1-.033-.007l-.004-.002a1.351 1.351 0 0 1 .11.123c.074.09.167.218.265.362.197.287.41.628.52.852l.18-.09Zm.697 3.321c.086-1.053-.167-2.255-.697-3.321l-.18.089c.516 1.038.76 2.203.678 3.216l.199.016Zm-1.763 3.89c1.121-1.424 1.657-2.596 1.763-3.89l-.2-.016c-.101 1.241-.613 2.377-1.72 3.782l.157.124Zm-1.632 3.062c.217-1.034.588-1.736 1.632-3.062l-.157-.124c-1.053 1.338-1.445 2.069-1.67 3.145l.195.041Zm.795 2.656c-.714-.371-1.056-1.414-.795-2.656l-.196-.041c-.268 1.277.066 2.442.899 2.874l.092-.177Zm.853.087a.36.36 0 0 1-.142.043 1.352 1.352 0 0 1-.711-.13l-.092.177a1.553 1.553 0 0 0 .83.151.554.554 0 0 0 .223-.073l-.108-.168Zm-.036-.791c.056.194.082.391.08.546a.771.771 0 0 1-.02.187c-.013.05-.027.06-.024.058l.108.168c.062-.04.093-.112.11-.175a.965.965 0 0 0 .027-.237 2.232 2.232 0 0 0-.088-.602l-.193.055Zm-.078-.87c0 .162.009.34.023.496.013.153.032.292.055.374l.193-.055a2.165 2.165 0 0 1-.05-.337 5.676 5.676 0 0 1-.02-.479h-.2Zm1.741-3.399c-.75.94-1.186 1.525-1.433 2.005-.251.488-.308.868-.308 1.393h.2c0-.503.053-.85.286-1.301.237-.46.66-1.028 1.412-1.972l-.157-.125Zm1.691-3.03c-.089.764-.536 1.58-1.69 3.03l.156.125c1.154-1.45 1.637-2.306 1.733-3.131l-.199-.024Zm-.028-.257c.042 0 .057.002.063.004 0 0-.005-.002-.01-.008-.006-.005-.008-.01-.008-.01a.245.245 0 0 1 .002.073c-.002.047-.009.11-.019.199l.199.023c.01-.087.017-.157.02-.212a.401.401 0 0 0-.013-.148.17.17 0 0 0-.043-.068.171.171 0 0 0-.067-.04.416.416 0 0 0-.124-.013v.2Zm-.404-.184a.744.744 0 0 0 .192.128.526.526 0 0 0 .212.056v-.2a.337.337 0 0 1-.127-.037.54.54 0 0 1-.14-.092l-.137.145Zm-.113-.486a.491.491 0 0 0-.037.267c.02.086.08.151.15.218l.138-.144c-.071-.068-.088-.097-.093-.119-.005-.023-.002-.06.031-.157l-.189-.065ZM9.95 9.668c.151.46.245.81.287 1.082.043.274.033.46-.015.6l.19.064c.062-.182.067-.406.023-.694a7.38 7.38 0 0 0-.295-1.115l-.19.063Zm-.503-2.91c.001 1.142.09 1.654.503 2.91l.19-.063c-.407-1.239-.492-1.73-.493-2.847h-.2Zm.517-2.599c-.377.745-.518 1.465-.517 2.6h.2c-.001-1.115.137-1.801.495-2.51l-.178-.09Zm.2-1.029c-.004.29-.013.463-.041.606-.028.14-.074.255-.16.423l.18.09a1.74 1.74 0 0 0 .176-.474c.032-.163.041-.354.045-.642l-.2-.003Zm3.88.289c.031.038.034.062.034.07 0 .007-.004.02-.025.036-.05.037-.167.067-.346.047l-.023.199c.2.022.378-.004.488-.085a.247.247 0 0 0 .105-.183.304.304 0 0 0-.078-.21l-.155.126Zm-.053-.06c0-.001.003 0 .012.01l.041.05.155-.126c-.015-.02-.033-.042-.049-.059a.244.244 0 0 0-.068-.054l-.09.178Zm-.382.103c.157-.05.251-.08.315-.094.067-.016.072-.007.067-.01l.091-.178c-.064-.033-.133-.024-.204-.007-.073.017-.177.05-.328.098l.06.19Zm.098.11a1.532 1.532 0 0 1-.267-.05.26.26 0 0 1-.056-.022c-.011-.007-.002-.005.004.011a.057.057 0 0 1-.003.05c-.002.002.001-.004.02-.015a.918.918 0 0 1 .204-.084l-.06-.191a1.094 1.094 0 0 0-.252.106.26.26 0 0 0-.08.074.144.144 0 0 0-.016.131c.016.043.05.07.077.088.03.018.065.032.102.044.076.023.179.042.304.057l.023-.2Zm2.505 1.767a3.458 3.458 0 0 1 .329.243c.023.022.03.031.029.03l.17-.104a.37.37 0 0 0-.064-.073 1.61 1.61 0 0 0-.095-.08 3.684 3.684 0 0 0-.26-.184l-.109.168Zm-.336-.217.336.217.108-.168-.336-.217-.108.168Zm.422-.184h-.368v.2h.368v-.2Zm.923.273c-.387-.198-.627-.273-.923-.273v.2c.251 0 .459.06.832.251l.091-.178Zm.973.186c-.2.108-.449.083-.973-.186l-.091.178c.525.27.862.345 1.16.183l-.096-.175Zm.046.54a1.24 1.24 0 0 0 .163-.202.557.557 0 0 0 .08-.184.206.206 0 0 0-.002-.096.14.14 0 0 0-.08-.091.177.177 0 0 0-.11-.007.392.392 0 0 0-.097.04l.095.175a.198.198 0 0 1 .047-.02c.01-.002.002.002-.013-.004a.06.06 0 0 1-.034-.036c-.002-.008 0-.01-.002.002a.37.37 0 0 1-.053.114 1.04 1.04 0 0 1-.137.169l.143.14Zm-1.293.01c.22.163.457.249.683.25a.84.84 0 0 0 .61-.26l-.142-.14a.64.64 0 0 1-.467.2.968.968 0 0 1-.566-.211l-.119.16Zm-.377-.336a.42.42 0 0 0 .058.07 3.728 3.728 0 0 0 .318.265l.12-.16a3.512 3.512 0 0 1-.296-.246.487.487 0 0 1-.022-.024l-.007-.008-.171.103Zm3.73-.277c-.198.113-.32.37-.368.626-.049.26-.03.556.091.773l.175-.098c-.091-.162-.113-.406-.07-.637.045-.235.15-.42.271-.49l-.1-.174Zm.296.243a1.168 1.168 0 0 0-.016-.132.229.229 0 0 0-.048-.109.138.138 0 0 0-.066-.04.15.15 0 0 0-.069-.003.33.33 0 0 0-.098.041l.1.173a.312.312 0 0 1 .028-.014l.008-.004a.05.05 0 0 1-.022-.001.063.063 0 0 1-.03-.018l-.004-.006.005.02a.983.983 0 0 1 .013.11l.2-.017Zm.057.633c.036 0 .054.021.054.022l-.007-.014a.74.74 0 0 1-.036-.128 4.17 4.17 0 0 1-.068-.513l-.199.016c.018.22.043.407.071.54.014.065.03.122.049.165.009.02.021.044.038.063a.13.13 0 0 0 .098.049v-.2Zm.05-.226c-.023.077-.05.146-.073.194a.308.308 0 0 1-.027.048c-.003.004-.003.003.001 0 .002-.002.02-.016.05-.016v.2a.122.122 0 0 0 .075-.028.196.196 0 0 0 .034-.035.513.513 0 0 0 .047-.08c.03-.06.06-.14.085-.227l-.192-.056Zm.652-.522a.639.639 0 0 0-.418.127c-.112.09-.184.225-.234.395l.192.056c.044-.15.1-.24.168-.295.066-.054.156-.083.292-.083v-.2Zm.165.448c.037-.065.067-.122.085-.168a.249.249 0 0 0 .021-.154c-.018-.07-.077-.1-.122-.113a.61.61 0 0 0-.15-.013v.2c.055 0 .084.003.099.007.006.001.003.002-.003-.003a.053.053 0 0 1-.017-.027c-.003-.008 0-.012-.002-.006a.181.181 0 0 1-.01.034c-.015.034-.039.08-.075.145l.174.098Zm-.095.387a.958.958 0 0 1 .095-.387l-.174-.098a1.152 1.152 0 0 0-.12.483l.2.002Zm-.002.249.002-.249-.2-.002-.002.249.2.002Zm.074-.336-.248.267.147.136.247-.267-.146-.136Zm.612-.3a.702.702 0 0 0-.327.062 1.03 1.03 0 0 0-.285.238l.146.136a.847.847 0 0 1 .227-.194.509.509 0 0 1 .239-.041v-.2Zm.41.08a.15.15 0 0 0-.045-.032.713.713 0 0 0-.13-.032 1.715 1.715 0 0 0-.235-.015v.2c.076 0 .15.005.206.013a.517.517 0 0 1 .076.017c.003 0-.005-.002-.014-.012l.143-.14Zm-.204.472c.073-.082.135-.164.177-.231a.53.53 0 0 0 .049-.097.19.19 0 0 0 .011-.055.12.12 0 0 0-.033-.09l-.142.14a.081.081 0 0 1-.024-.059v-.003a.35.35 0 0 1-.032.059 1.584 1.584 0 0 1-.156.204l.15.132Zm-.231.284c0 .017-.006.028-.003.021a.952.952 0 0 1 .059-.09c.044-.06.106-.137.175-.215l-.15-.132a3.262 3.262 0 0 0-.186.228 1.162 1.162 0 0 0-.081.13.148.148 0 0 0-.014.058h.2Zm.258-.045a1.49 1.49 0 0 1-.237-.013.309.309 0 0 1-.057-.012l.006.004c.006.005.03.026.03.066h-.2c0 .047.029.077.044.09a.176.176 0 0 0 .048.026c.028.011.063.019.098.024.073.011.168.017.271.015l-.003-.2Zm.584.164c-.139-.128-.32-.168-.584-.164l.003.2c.247-.003.363.036.445.111l.136-.147Zm-.182.468c.082-.013.151-.027.204-.044.045-.015.111-.043.14-.108.032-.073-.005-.14-.032-.178a.97.97 0 0 0-.13-.138l-.136.147c.054.05.086.083.103.107.02.028-.002.013.012-.018.005-.013.013-.017.01-.015a.142.142 0 0 1-.03.013 1.222 1.222 0 0 1-.174.037l.033.197Zm-.587.713c.05-.275.108-.433.192-.532.079-.094.193-.148.395-.18l-.032-.198c-.223.036-.392.102-.516.249-.12.142-.184.346-.236.625l.197.036Zm-.642 1.43c.35-.445.538-.863.642-1.43l-.197-.036a2.824 2.824 0 0 1-.602 1.341l.157.124Zm-.647 1.071c.231-.433.523-.915.647-1.072l-.157-.124c-.136.173-.435.669-.666 1.102l.176.095Zm-1.538 2.21c.686-.78 1.07-1.332 1.538-2.21l-.176-.094c-.46.864-.836 1.402-1.512 2.171l.15.132Zm-.453.514.453-.515-.15-.132-.453.515.15.133Zm.142.11-.13-.226-.174.1.13.226.174-.1Zm.096.277a.249.249 0 0 0-.024-.144c-.018-.04-.044-.086-.072-.133l-.173.1c.03.052.05.086.062.114.012.027.01.032.01.03l.197.034Zm-.464.363c.141-.076.246-.132.317-.18.067-.044.132-.099.147-.182l-.197-.035c.001-.006.004.008-.061.051-.06.04-.155.091-.3.17l.094.176Zm-1.206.325a.128.128 0 0 0 .076.036.268.268 0 0 0 .051 0 .864.864 0 0 0 .114-.017c.085-.018.195-.049.31-.085.23-.073.497-.174.655-.26l-.094-.175a4.167 4.167 0 0 1-.62.244 3.333 3.333 0 0 1-.293.08.669.669 0 0 1-.086.014h-.012l.011.004a.082.082 0 0 1 .03.02l-.142.14Zm.113-.538c-.047.11-.087.216-.112.298a.972.972 0 0 0-.028.108.266.266 0 0 0-.005.047c0 .008 0 .02.003.032.003.011.01.034.029.054l.142-.14a.089.089 0 0 1 .024.042.051.051 0 0 1 .002.013l.001-.012a.8.8 0 0 1 .023-.084 3.16 3.16 0 0 1 .105-.28l-.184-.078Zm.474-2.3c-.033.92-.172 1.59-.474 2.3l.184.078c.313-.737.456-1.43.49-2.371l-.2-.008Zm.032-.895-.032.894.2.008.032-.895-.2-.007Zm.423-.383-.385.309.125.156.385-.31-.125-.155Zm1.52-2.352c-.26 1.023-.685 1.681-1.52 2.352l.125.155c.869-.697 1.318-1.392 1.59-2.458l-.194-.05Zm.016-1.145a.9.9 0 0 1 .09.443c-.001.193-.035.428-.105.702l.194.05c.072-.285.11-.537.11-.751a1.094 1.094 0 0 0-.114-.542l-.175.098ZM13.307 20.69c.924 1.243.911 3.011-.04 4.326l.163.117c.998-1.381 1.017-3.245.037-4.562l-.16.119Zm-.209-.646a.106.106 0 0 0-.086.044.111.111 0 0 0-.02.068c0 .025.008.049.014.063a.876.876 0 0 0 .061.119 4.4 4.4 0 0 0 .24.352l.16-.12a4.147 4.147 0 0 1-.228-.334.725.725 0 0 1-.047-.09c-.004-.01-.001-.006 0 .007 0 .006 0 .029-.018.052a.094.094 0 0 1-.075.04v-.2Zm.692.236a12.923 12.923 0 0 0-.588-.213 1.12 1.12 0 0 0-.053-.015.222.222 0 0 0-.05-.008v.2c-.01 0-.011-.001.002.002l.043.012a12.432 12.432 0 0 1 .574.208l.072-.186Zm2.7 2.152c-.593-.924-1.59-1.716-2.7-2.152l-.073.186c1.075.422 2.036 1.189 2.605 2.074l.168-.108Zm.56 1.9c0-.38-.035-.694-.124-.994-.089-.301-.23-.585-.436-.906l-.168.108c.2.311.33.577.412.854.082.277.116.57.116.938h.2Zm-.883 2.393c.392-.71.614-1.13.737-1.46.125-.337.146-.58.146-.933h-.2c0 .34-.02.557-.134.863-.116.313-.33.72-.724 1.433l.175.097Zm-.403 1.712c-.109-.44.016-1.013.403-1.712l-.175-.097c-.396.716-.549 1.345-.422 1.857l.194-.048Zm1.15 1.577a4.292 4.292 0 0 1-.718-.784c-.22-.304-.384-.6-.432-.793l-.194.048c.057.232.241.554.464.862.225.31.501.62.754.823l.125-.156Zm1.564.65c-.3 0-.53-.036-.763-.132-.235-.097-.479-.258-.802-.518l-.125.156c.328.264.59.439.85.547.264.108.522.147.84.147v-.2Zm1.664.298c-.152-.091-.407-.165-.697-.216a5.73 5.73 0 0 0-.967-.082v.2c.321 0 .65.03.932.08.285.05.51.118.63.19l.102-.172Zm.211 1.341c.192-.177.25-.448.208-.699a.923.923 0 0 0-.419-.642l-.103.172c.176.105.291.299.325.503.034.204-.017.4-.146.52l.135.146Zm-.306-.098c0 .034 0 .069.004.096a.162.162 0 0 0 .017.055.115.115 0 0 0 .081.06.127.127 0 0 0 .078-.013.242.242 0 0 0 .042-.026c.024-.018.052-.044.084-.074l-.135-.147-.07.062-.007.005.012-.004a.087.087 0 0 1 .091.041l.005.012c0 .002 0 .002 0 0a1.395 1.395 0 0 1-.002-.068h-.2Zm-.12-.267c.033.04.064.093.087.146a.355.355 0 0 1 .033.12h.2a.539.539 0 0 0-.05-.199.861.861 0 0 0-.114-.192l-.156.125Zm-.142-.177.142.177.156-.125-.142-.177-.155.125Zm.182.254-.004-.317-.2.002.004.317.2-.002Zm-.41.793c.08 0 .143-.05.184-.098a.757.757 0 0 0 .117-.19c.065-.146.11-.333.109-.505l-.2.002c.002.14-.036.298-.091.42a.565.565 0 0 1-.084.14c-.03.034-.043.031-.034.031v.2Zm-.171-.287c0 .06.01.12.027.168a.23.23 0 0 0 .043.072c.02.021.053.047.102.047v-.2c.028 0 .043.016.046.018l-.004-.009a.286.286 0 0 1-.014-.096h-.2Zm-.25-.386c-.005 0 .01 0 .044.029a.75.75 0 0 1 .177.247c.02.048.029.086.029.11h.2a.496.496 0 0 0-.045-.189.957.957 0 0 0-.233-.322.282.282 0 0 0-.172-.075v.2Zm.069.21a1.267 1.267 0 0 1-.002-.207.243.243 0 0 1 .008-.046c.001-.003 0 .002-.006.01a.087.087 0 0 1-.069.033v-.2a.113.113 0 0 0-.09.045.163.163 0 0 0-.024.048.425.425 0 0 0-.017.09c-.007.066-.007.151 0 .242l.2-.015Zm-.158.562a.564.564 0 0 0 .14-.242.951.951 0 0 0 .017-.32l-.199.016a.762.762 0 0 1-.01.252.365.365 0 0 1-.095.158l.147.136Zm-.47-.081c0 .06.006.12.026.167.01.024.027.05.052.071a.153.153 0 0 0 .091.035.255.255 0 0 0 .155-.057c.045-.032.094-.078.146-.135l-.147-.136a.816.816 0 0 1-.115.108c-.033.024-.04.02-.03.02.008 0 .019.004.027.01.007.006.008.01.006.006a.265.265 0 0 1-.01-.09h-.2Zm-.239-.317c.041 0 .1.03.154.095a.366.366 0 0 1 .085.222h.2a.565.565 0 0 0-.13-.348c-.074-.091-.185-.169-.309-.169v.2Zm-.286.106c.058-.03.121-.057.177-.077a.464.464 0 0 1 .109-.029v-.2a.598.598 0 0 0-.176.04 1.6 1.6 0 0 0-.203.09l.093.176Zm-3.164-1.57c.588.617 1.207 1.092 1.759 1.374.276.14.539.234.775.27.236.038.453.02.63-.074l-.093-.177c-.126.067-.296.087-.506.054a2.465 2.465 0 0 1-.715-.252c-.528-.268-1.128-.728-1.705-1.333l-.145.138Zm-1.291-1.672c.331.6.596.942 1.291 1.672l.145-.138c-.689-.723-.941-1.05-1.261-1.63l-.175.096Zm-.089-1.878c-.094.6-.143.947-.132 1.202.011.266.087.434.22.676l.176-.097c-.129-.232-.187-.367-.196-.587-.01-.231.034-.555.13-1.163l-.198-.031Zm-.313-1.535c.185.28.288.49.333.712.046.223.036.468-.02.823l.198.031c.057-.363.071-.636.018-.894-.053-.259-.171-.493-.363-.782l-.166.11Zm-.253-.383.253.383.166-.11-.253-.383-.166.11Zm.325-.56-.323.446.162.117.324-.447-.163-.117ZM29.012 15.1h1.183v-.2h-1.183v.2Zm.088 7.6.012-7.7h-.2l-.012 7.7h.2Zm1.095-.1H29v.2h1.195v-.2Zm-.1-7.6v7.7h.2V15h-.2Zm2.858 3.63v4.07h.2v-4.07h-.2Zm.095.1h.012l-.015-.2-.012.001.015.2Zm.706-.77a2.429 2.429 0 0 0-.79.606l.152.13c.2-.232.446-.421.725-.555l-.087-.18Zm.974-.244c-.338.015-.67.098-.974.245l.087.18c.279-.135.584-.212.896-.225l-.009-.2Zm1.308 1.458c0-.407-.08-.773-.289-1.039-.213-.27-.546-.42-1.015-.42v.2c.424 0 .692.133.858.344.17.215.246.528.246.915h.2Zm0 3.527v-3.527h-.2v3.527h.2Zm1.038-.1h-1.138v.2h1.138v-.2Zm-.1-3.64v3.74h.2v-3.74h-.2Zm-2.053-2.037c.653 0 1.163.203 1.51.553.348.35.543.857.543 1.483h.2c0-.668-.209-1.23-.6-1.624-.393-.395-.958-.612-1.653-.612v.2Zm-1.817.636a2.778 2.778 0 0 1 1.816-.636l.003-.2a2.977 2.977 0 0 0-1.947.682l.128.154Zm-.164-.61v.533h.2v-.532h-.2Zm-1.037.1h1.137v-.2h-1.137v.2Zm.1 5.65v-5.75h-.2v5.75h.2Zm1.05-.1h-1.15v.2h1.15v-.2Zm7.712-1.241 1.688-4.369-.187-.072-1.688 4.369.187.072Zm-1.878-4.368 1.691 4.368.187-.072-1.692-4.369-.186.073Zm-1.14.063h1.233v-.2h-1.232v.2Zm2.435 5.613-2.342-5.75-.185.075 2.341 5.75.186-.075Zm1.065-.062h-1.158v.2h1.158v-.2Zm2.252-5.688-2.345 5.75.185.075 2.345-5.75-.185-.075Zm-1.14.137h1.233v-.2H42.36v.2Zm2.824 3.243c.034.46.251.888.605 1.194l.131-.151a1.546 1.546 0 0 1-.536-1.057l-.2.014Zm.059-.098h-.002l.087.181h.001l-.086-.181Zm4.475-.01h-4.432v.2h4.432v-.2Zm-.1.01v.09h.2v-.09h-.2Zm0-.337c.006.11.006.22 0 .331l.2.01a3.444 3.444 0 0 0 0-.352l-.2.01Zm-2.697-2.94c.858 0 1.53.34 1.988.872.46.535.709 1.269.709 2.063h.2c0-.835-.262-1.617-.758-2.193-.496-.577-1.224-.941-2.14-.941v.2Zm-2.73 2.903c0-.799.257-1.525.724-2.05.466-.523 1.146-.852 2.005-.852v-.2c-.914 0-1.65.352-2.154.92-.504.566-.775 1.341-.775 2.182h.2Zm.181 1.121c-.14-.355-.2-.736-.181-1.116l-.2-.01c-.021.408.045.817.195 1.2l.186-.074Zm.629.954a2.753 2.753 0 0 1-.629-.954l-.186.073c.15.383.379.731.674 1.023l.141-.142Zm.972.63a2.868 2.868 0 0 1-.972-.63l-.14.142c.294.292.648.52 1.04.674l.072-.186Zm1.154.202a2.937 2.937 0 0 1-1.154-.202l-.073.186c.392.154.811.227 1.233.215l-.006-.2Zm1.241-.28a2.793 2.793 0 0 1-1.237.28l-.002.2c.46.002.916-.1 1.327-.3l-.088-.18Zm.97-.793a2.69 2.69 0 0 1-.97.793l.088.18a2.89 2.89 0 0 0 1.041-.852l-.16-.121Zm.066-.085-.065.083.157.124.065-.083-.157-.124Zm-.829-.447.85.591.115-.164-.85-.592-.115.165Zm.07.052.061-.067-.147-.135-.062.067.147.135Zm-.691.554c.272-.133.51-.324.695-.56l-.157-.123c-.166.211-.38.383-.626.503l.088.18Zm-.878.205c.304-.002.605-.072.878-.206l-.088-.18c-.246.12-.517.184-.792.186l.002.2Zm-1.287-.447c.355.306.817.466 1.29.447l-.008-.2a1.662 1.662 0 0 1-1.151-.398l-.13.151Zm4.715.264.82-.71-.13-.152-.821.71.13.152Zm.086-.075-.086-.076-.132.15.086.076.132-.15Zm1.186.817a3.36 3.36 0 0 1-1.179-.81l-.146.137c.347.37.774.663 1.249.858l.076-.185Zm1.423.254a3.468 3.468 0 0 1-1.423-.254l-.076.185c.476.194.99.286 1.505.27l-.006-.2Zm2.145-1.663c0 .592-.251 1.002-.639 1.268-.392.27-.93.395-1.503.395v.2c.598 0 1.18-.13 1.617-.43.44-.302.725-.774.725-1.433h-.2Zm-2.028-1.766c.495.134 1.006.306 1.392.582.38.273.636.643.636 1.184h.2c0-.619-.298-1.045-.72-1.346-.417-.299-.958-.478-1.456-.613l-.052.193Zm-.088-.024.087.024.054-.193a11.65 11.65 0 0 0-.089-.024l-.052.192Zm-1.327-.706c.04.11.13.2.23.273.103.075.23.138.359.193.26.11.55.188.738.24l.052-.194a5.862 5.862 0 0 1-.712-.23 1.66 1.66 0 0 1-.32-.17.42.42 0 0 1-.159-.18l-.188.068Zm-.034-.217c0 .071.01.144.033.214l.19-.063a.482.482 0 0 1-.023-.15h-.2Zm1.073-.64c-.18 0-.437.026-.654.113-.214.087-.42.248-.42.527h.2c0-.158.11-.267.295-.341.184-.074.413-.1.579-.1v-.2Zm1.493.591a2.19 2.19 0 0 0-1.493-.591v.2a1.99 1.99 0 0 1 1.356.537l.137-.146Zm.066.057-.07-.06-.13.152.07.06.13-.152Zm.65-.675-.78.675.13.151.78-.675-.13-.151Zm-.08.07.074.076.143-.14-.075-.076-.142.14Zm-.988-.636c.37.146.707.363.99.638l.139-.144a3.176 3.176 0 0 0-1.056-.68l-.073.186Zm-1.17-.212c.4-.006.798.066 1.17.212l.073-.186a3.269 3.269 0 0 0-1.246-.226l.003.2Zm-2 1.489c0-.529.247-.896.617-1.135.375-.242.879-.354 1.381-.354v-.2c-.528 0-1.073.117-1.49.386-.42.272-.708.7-.708 1.303h.2Zm1.98 1.663c-.48-.131-.978-.285-1.356-.54-.373-.252-.624-.598-.624-1.123h-.2c0 .606.297 1.009.712 1.289.409.276.937.436 1.415.567l.053-.193Zm.102.027-.103-.027-.052.193.104.027.051-.193Zm1.38 1.035c0-.351-.238-.578-.513-.729-.274-.15-.613-.239-.867-.306l-.051.194c.259.068.573.151.822.288.25.136.409.31.409.553h.2Zm-1.238.814c.24 0 .54-.04.785-.158.248-.12.453-.327.453-.656h-.2c0 .226-.134.376-.34.475a1.69 1.69 0 0 1-.698.14v.2Zm-1.035-.227c.324.146.677.224 1.034.227l.003-.2a2.393 2.393 0 0 1-.955-.21l-.082.183Zm-.846-.62c.233.262.522.474.846.62l.082-.182a2.315 2.315 0 0 1-.779-.571l-.149.133Zm-.069-.075.07.076.147-.135-.07-.076-.147.135Zm5.886-3.226h-1.03v.2h1.03v-.2Zm.103 3.226-.003-3.126h-.2l.003 3.126h.2Zm1.9 1.695c-.619 0-1.091-.13-1.408-.398-.314-.265-.492-.682-.492-1.297h-.2c0 .655.191 1.136.563 1.45.368.311.896.445 1.537.445v-.2Zm.218-.012c-.076.006-.148.012-.218.012v.2c.079 0 .159-.007.234-.013l-.016-.199Zm.234-.012c-.079 0-.159.006-.234.012l.016.2c.076-.007.148-.012.218-.012v-.2Zm.095 0h-.095v.2h.095v-.2Zm-.1-.88v.98h.2v-.98h-.2Zm-.492.1h.592v-.2h-.592v.2Zm-.92-.967c0 .294.045.542.196.715.153.176.394.251.724.251v-.2c-.305 0-.475-.07-.573-.183-.102-.116-.148-.301-.148-.583h-.2Zm0-3.05v3.05h.2v-3.05h-.2Zm1.508-.1h-1.409v.2h1.409v-.2Zm-.1-.873v.974h.2v-.974h-.2Zm-1.309.1h1.409v-.2h-1.409v.2Zm-.1-1.76v1.66h.2v-1.66h-.2Zm-1.037.1h1.137v-.2H57.07v.2Zm.1 1.56v-1.66h-.2v1.66h.2Zm-1.13.1h1.03v-.2h-1.03v.2Zm.1.873v-.973h-.2v.974h.2Zm9.27-1.978h-2.419v.2h2.42v-.2Zm.1 6.768v-6.668h-.2V22.7h.2Zm1.08-.1h-1.18v.2h1.18v-.2Zm-.1-6.568V22.7h.2v-6.668h-.2Zm2.519-.1h-2.42v.2h2.42v-.2Zm-.1-.933v1.033h.2V15h-.2Zm-5.918.1h6.017v-.2h-6.017v.2Zm.1.933V15h-.2v1.033h.2Zm8.498 6.521-2.382-5.63-.184.077 2.382 5.631.184-.078Zm-.914 2.482.916-2.407-.187-.072-.916 2.407.187.072Zm1.06-.136h-1.154v.2h1.154v-.2Zm3.037-7.958-3.13 8.022.186.072 3.13-8.021-.186-.073Zm-1.073.136h1.166v-.2H73.7v.2Zm-1.55 4.154 1.643-4.217-.187-.073-1.642 4.218.187.072ZM70.21 17l1.754 4.234.185-.076-1.754-4.234-.185.076Zm-1.095.062h1.187v-.2h-1.187v.2Zm9.16 5.677c-.805 0-1.423-.218-1.84-.618-.416-.4-.645-.995-.645-1.78h-.2c0 .824.242 1.477.707 1.924.464.447 1.138.674 1.977.674v-.2Zm2.486-2.398c0 .785-.229 1.38-.645 1.78-.417.4-1.036.618-1.842.618v.2c.841 0 1.516-.227 1.98-.674.466-.447.707-1.1.707-1.924h-.2Zm0-3.38v3.38h.2v-3.38h-.2Zm-1.05.1h1.15v-.2h-1.15v.2Zm.1 3.216V16.96h-.2v3.316h.2Zm-1.525 1.668c.516 0 .903-.171 1.159-.476.253-.301.366-.72.366-1.192h-.2c0 .444-.107.81-.32 1.064-.21.25-.536.404-1.005.404v.2Zm-1.55-1.668c0 .47.12.888.38 1.19.261.305.653.478 1.17.478v-.2c-.47 0-.802-.155-1.019-.408-.219-.255-.33-.621-.33-1.06h-.2Zm0-3.316v3.316h.2V16.96h-.2Zm-1.046.1h1.146v-.2H75.69v.2Zm.1 3.28v-3.38h-.2v3.38h.2Zm7.612-1.819v4.19h.2v-4.19h-.2Zm.142.09h.002l-.087-.18-.002.001.087.18Zm-.051.011h.008v-.2h-.008v.2Zm.617-.687a2.114 2.114 0 0 0-.693.521l.151.132c.173-.198.386-.358.627-.471l-.085-.181Zm.85-.204c-.296.01-.585.08-.85.204l.085.181c.24-.112.503-.176.771-.185l-.007-.2Zm1.167 1.458c0-.382-.038-.747-.207-1.018-.175-.28-.478-.44-.957-.44v.2c.43 0 .658.139.788.346.136.219.176.533.176.912h.2Zm0 3.53v-3.53h-.2v3.53h.2Zm1.037-.1h-1.137v.2h1.137v-.2Zm-.1-3.644v3.745h.2v-3.745h-.2Zm-.027-.382c.02.126.029.253.027.38l.2.004a2.441 2.441 0 0 0-.03-.415l-.197.031Zm.705-.638c-.267.137-.5.328-.685.56l.157.125c.166-.21.377-.383.619-.507l-.091-.178Zm.863-.232a2.138 2.138 0 0 0-.863.232l.091.178a1.94 1.94 0 0 1 .783-.21l-.01-.2Zm1.17 1.458c0-.383-.039-.748-.207-1.018-.176-.281-.479-.44-.957-.44v.2c.429 0 .658.138.787.346.136.218.176.532.176.912h.2Zm0 3.53v-3.53h-.2v3.53h.2Zm1.004-.1h-1.105v.2h1.105v-.2Zm-.1-3.645v3.745h.2v-3.745h-.2Zm-1.908-2.036c.661 0 1.133.21 1.442.56.31.353.466.86.466 1.476h.2c0-.647-.164-1.208-.516-1.608-.354-.402-.886-.628-1.592-.628v.2Zm-1.924.767a2.92 2.92 0 0 1 1.926-.767l-.004-.2a3.12 3.12 0 0 0-2.058.82l.136.147Zm-.824-.592c.273.132.505.33.674.575l.165-.113a1.938 1.938 0 0 0-.752-.642l-.087.18Zm-.881-.176c.305-.017.609.044.881.176l.087-.18a1.997 1.997 0 0 0-.98-.195l.012.2Zm-1.588.548a2.702 2.702 0 0 1 1.584-.547l-.004-.2a2.904 2.904 0 0 0-1.7.588l.12.16Zm-.16-.517v.438h.2v-.438h-.2Zm-1.038.1h1.138v-.2h-1.138v.2Zm.1 5.65v-5.75h-.2v5.75h.2Zm1.046-.1h-1.146v.2h1.147v-.2Zm9.577-2.302c.034.458.252.886.606 1.19l.13-.15a1.547 1.547 0 0 1-.537-1.055l-.2.015Zm4.53-.107h-4.43v.2h4.43v-.2Zm-.1.01v.09h.2v-.09h-.2Zm.001-.337c.006.11.006.221 0 .331l.2.01a3.388 3.388 0 0 0 0-.351l-.2.01Zm-2.697-2.944c.858 0 1.53.34 1.987.873.46.534.71 1.27.71 2.066h.2c0-.837-.262-1.62-.758-2.197-.497-.578-1.224-.941-2.14-.941v.2Zm-2.73 2.907c0-.8.257-1.526.725-2.052.466-.524 1.145-.855 2.005-.855v-.2c-.915 0-1.65.353-2.155.922-.504.567-.775 1.344-.775 2.185h.2Zm.182 1.12a2.67 2.67 0 0 1-.182-1.115l-.2-.01a2.87 2.87 0 0 0 .196 1.198l.186-.073Zm.63.951a2.755 2.755 0 0 1-.63-.951l-.186.073c.15.381.379.729.675 1.02l.14-.142Zm.971.63a2.887 2.887 0 0 1-.972-.63l-.14.143c.295.29.65.52 1.04.673l.072-.186Zm1.153.2a2.946 2.946 0 0 1-1.153-.2l-.072.186c.39.152.81.226 1.23.214l-.005-.2Zm1.24-.279a2.804 2.804 0 0 1-1.236.28l-.001.2c.46.002.914-.1 1.325-.3l-.087-.18Zm.97-.79a2.705 2.705 0 0 1-.97.79l.088.18c.411-.2.768-.49 1.042-.849l-.16-.12Zm.067-.084-.065.083.157.124.066-.084-.158-.123Zm-.825-.452.846.595.116-.163-.847-.596-.115.164Zm.063.055.066-.067-.143-.14-.066.067.143.14Zm-.687.553c.273-.132.511-.325.695-.561l-.158-.123a1.767 1.767 0 0 1-.624.504l.087.18Zm-.878.204a2.04 2.04 0 0 0 .878-.204l-.088-.18a1.84 1.84 0 0 1-.791.184v.2Zm-1.285-.446c.354.305.816.464 1.288.446l-.007-.2a1.661 1.661 0 0 1-1.15-.398l-.13.152Zm6.183-2.859v4.071h.2v-4.07h-.2Zm.092.1h.008v-.2h-.008v.2Zm.717-.773a2.433 2.433 0 0 0-.793.608l.152.13c.199-.232.447-.423.728-.558l-.087-.18Zm.979-.244a2.502 2.502 0 0 0-.979.244l.087.18c.28-.135.587-.211.9-.225l-.008-.2Zm1.312 1.458c0-.408-.08-.774-.29-1.04-.214-.27-.548-.418-1.018-.418v.2c.425 0 .695.132.861.343.17.215.247.528.247.915h.2Zm0 3.53v-3.53h-.2v3.53h.2Zm1.033-.1h-1.133v.2H104v-.2Zm-.1-3.645v3.745h.2v-3.745h-.2Zm-2.052-2.036c.652 0 1.162.204 1.51.554.348.35.542.858.542 1.482h.2c0-.666-.208-1.227-.6-1.622-.392-.396-.958-.614-1.652-.614v.2Zm-1.817.64a2.778 2.778 0 0 1 1.816-.64l.002-.2a2.98 2.98 0 0 0-1.947.686l.129.154Zm-.164-.609v.532h.2v-.532h-.2Zm-1.038.1h1.138v-.2h-1.138v.2Zm.1 5.65v-5.75h-.2v5.75h.2Zm1.038-.1h-1.138v.2h1.138v-.2Zm-54.684-3.191h3.248v-.2h-3.248v.2Zm1.642-1.705c-.51 0-.914.173-1.207.463-.291.288-.466.686-.534 1.127l.198.03c.063-.41.223-.764.477-1.015.252-.25.604-.405 1.066-.405v-.2Zm1.178.475a1.771 1.771 0 0 0-1.175-.475l-.005.2c.391.008.764.159 1.043.42l.137-.145Zm.528 1.125a1.666 1.666 0 0 0-.528-1.125l-.137.146c.28.262.445.615.466.99l.2-.012Zm47.891.007a1.671 1.671 0 0 0-.532-1.13l-.137.146c.282.264.45.62.47.995l.2-.01Zm-3.36.105h3.26v-.2h-3.26v.2Zm1.643-1.704c-.501 0-.899.174-1.19.464-.29.288-.47.685-.55 1.122l.196.037c.075-.409.24-.765.494-1.017.253-.251.599-.406 1.05-.406v-.2Zm1.185.47a1.77 1.77 0 0 0-1.184-.47l-.002.2a1.57 1.57 0 0 1 1.05.416l.136-.147Z" mask="url(#a)"/></svg>
